<?xml version="1.0" encoding="utf-8" standalone="no"?>
<!DOCTYPE svg PUBLIC "-//W3C//DTD SVG 1.1//EN"
  "http://www.w3.org/Graphics/SVG/1.1/DTD/svg11.dtd">
<svg xmlns:xlink="http://www.w3.org/1999/xlink" width="532.8pt" height="417.6pt" viewBox="0 0 532.8 417.6" xmlns="http://www.w3.org/2000/svg" version="1.1">
 <metadata>
  <rdf:RDF xmlns:dc="http://purl.org/dc/elements/1.1/" xmlns:cc="http://creativecommons.org/ns#" xmlns:rdf="http://www.w3.org/1999/02/22-rdf-syntax-ns#">
   <cc:Work>
    <dc:type rdf:resource="http://purl.org/dc/dcmitype/StillImage"/>
    <dc:date>2026-09-23T12:18:54.765165</dc:date>
    <dc:format>image/svg+xml</dc:format>
    <dc:creator>
     <cc:Agent>
      <dc:title>Matplotlib v3.10.0, https://matplotlib.org/</dc:title>
     </cc:Agent>
    </dc:creator>
   </cc:Work>
  </rdf:RDF>
 </metadata>
 <defs>
  <style type="text/css">*{stroke-linejoin: round; stroke-linecap: butt}</style>
 </defs>
 <g id="figure_1">
  <g id="patch_1">
   <path d="M 0 417.6 
L 532.8 417.6 
L 532.8 0 
L 0 0 
z
" style="fill: #ffffff"/>
  </g>
  <g id="axes_1">
   <g id="patch_2">
    <path d="M 85.248 346.608 
L 516.816 346.608 
L 516.816 62.64 
L 85.248 62.64 
z
" style="fill: #ffffff"/>
   </g>
   <g id="matplotlib.axis_1">
    <g id="xtick_1">
     <g id="line2d_1">
      <defs>
       <path id="mef67e5d6fa" d="M 0 0 
L 0 3.5 
" style="stroke: #56616e; stroke-width: 0.8"/>
      </defs>
      <g>
       <use xlink:href="#mef67e5d6fa" x="130.486035" y="346.608" style="fill: #56616e; stroke: #56616e; stroke-width: 0.8"/>
      </g>
     </g>
     <g id="text_1">
      <text style="font-size: 10px; font-family: 'DejaVu Sans'; text-anchor: middle; fill: #56616e" x="130.486035" y="361.206437" transform="rotate(-0 130.486035 361.206437)">0.80</text>
     </g>
    </g>
    <g id="xtick_2">
     <g id="line2d_2">
      <g>
       <use xlink:href="#mef67e5d6fa" x="218.247777" y="346.608" style="fill: #56616e; stroke: #56616e; stroke-width: 0.8"/>
      </g>
     </g>
     <g id="text_2">
      <text style="font-size: 10px; font-family: 'DejaVu Sans'; text-anchor: middle; fill: #56616e" x="218.247777" y="361.206437" transform="rotate(-0 218.247777 361.206437)">0.88</text>
     </g>
    </g>
    <g id="xtick_3">
     <g id="line2d_3">
      <g>
       <use xlink:href="#mef67e5d6fa" x="306.009518" y="346.608" style="fill: #56616e; stroke: #56616e; stroke-width: 0.8"/>
      </g>
     </g>
     <g id="text_3">
      <text style="font-size: 10px; font-family: 'DejaVu Sans'; text-anchor: middle; fill: #56616e" x="306.009518" y="361.206437" transform="rotate(-0 306.009518 361.206437)">0.96</text>
     </g>
    </g>
    <g id="xtick_4">
     <g id="line2d_4">
      <g>
       <use xlink:href="#mef67e5d6fa" x="393.77126" y="346.608" style="fill: #56616e; stroke: #56616e; stroke-width: 0.8"/>
      </g>
     </g>
     <g id="text_4">
      <text style="font-size: 10px; font-family: 'DejaVu Sans'; text-anchor: middle; fill: #56616e" x="393.77126" y="361.206437" transform="rotate(-0 393.77126 361.206437)">1.04</text>
     </g>
    </g>
    <g id="xtick_5">
     <g id="line2d_5">
      <g>
       <use xlink:href="#mef67e5d6fa" x="481.533002" y="346.608" style="fill: #56616e; stroke: #56616e; stroke-width: 0.8"/>
      </g>
     </g>
     <g id="text_5">
      <text style="font-size: 10px; font-family: 'DejaVu Sans'; text-anchor: middle; fill: #56616e" x="481.533002" y="361.206437" transform="rotate(-0 481.533002 361.206437)">1.12</text>
     </g>
    </g>
    <g id="text_6">
     <text style="font-size: 10px; font-family: 'DejaVu Sans'; text-anchor: middle; fill: #273444" x="301.032" y="375.808" transform="rotate(-0 301.032 375.808)">H-F distance (Å)</text>
    </g>
   </g>
   <g id="matplotlib.axis_2">
    <g id="ytick_1">
     <g id="line2d_6">
      <path d="M 85.248 334.931092 
L 516.816 334.931092 
" clip-path="url(#p892a20e251)" style="fill: none; stroke: #e3e8ec; stroke-opacity: 0.85; stroke-width: 0.6; stroke-linecap: square"/>
     </g>
     <g id="line2d_7">
      <defs>
       <path id="mdce021b49f" d="M 0 0 
L -3.5 0 
" style="stroke: #56616e; stroke-width: 0.8"/>
      </defs>
      <g>
       <use xlink:href="#mdce021b49f" x="85.248" y="334.931092" style="fill: #56616e; stroke: #56616e; stroke-width: 0.8"/>
      </g>
     </g>
     <g id="text_7">
      <text style="font-size: 10px; font-family: 'DejaVu Sans'; text-anchor: end; fill: #56616e" x="78.248" y="338.730311" transform="rotate(-0 78.248 338.730311)">0</text>
     </g>
    </g>
    <g id="ytick_2">
     <g id="line2d_8">
      <path d="M 85.248 272.191252 
L 516.816 272.191252 
" clip-path="url(#p892a20e251)" style="fill: none; stroke: #e3e8ec; stroke-opacity: 0.85; stroke-width: 0.6; stroke-linecap: square"/>
     </g>
     <g id="line2d_9">
      <g>
       <use xlink:href="#mdce021b49f" x="85.248" y="272.191252" style="fill: #56616e; stroke: #56616e; stroke-width: 0.8"/>
      </g>
     </g>
     <g id="text_8">
      <text style="font-size: 10px; font-family: 'DejaVu Sans'; text-anchor: end; fill: #56616e" x="78.248" y="275.990471" transform="rotate(-0 78.248 275.990471)">15</text>
     </g>
    </g>
    <g id="ytick_3">
     <g id="line2d_10">
      <path d="M 85.248 209.451411 
L 516.816 209.451411 
" clip-path="url(#p892a20e251)" style="fill: none; stroke: #e3e8ec; stroke-opacity: 0.85; stroke-width: 0.6; stroke-linecap: square"/>
     </g>
     <g id="line2d_11">
      <g>
       <use xlink:href="#mdce021b49f" x="85.248" y="209.451411" style="fill: #56616e; stroke: #56616e; stroke-width: 0.8"/>
      </g>
     </g>
     <g id="text_9">
      <text style="font-size: 10px; font-family: 'DejaVu Sans'; text-anchor: end; fill: #56616e" x="78.248" y="213.25063" transform="rotate(-0 78.248 213.25063)">30</text>
     </g>
    </g>
    <g id="ytick_4">
     <g id="line2d_12">
      <path d="M 85.248 146.71157 
L 516.816 146.71157 
" clip-path="url(#p892a20e251)" style="fill: none; stroke: #e3e8ec; stroke-opacity: 0.85; stroke-width: 0.6; stroke-linecap: square"/>
     </g>
     <g id="line2d_13">
      <g>
       <use xlink:href="#mdce021b49f" x="85.248" y="146.71157" style="fill: #56616e; stroke: #56616e; stroke-width: 0.8"/>
      </g>
     </g>
     <g id="text_10">
      <text style="font-size: 10px; font-family: 'DejaVu Sans'; text-anchor: end; fill: #56616e" x="78.248" y="150.510789" transform="rotate(-0 78.248 150.510789)">45</text>
     </g>
    </g>
    <g id="ytick_5">
     <g id="line2d_14">
      <path d="M 85.248 83.97173 
L 516.816 83.97173 
" clip-path="url(#p892a20e251)" style="fill: none; stroke: #e3e8ec; stroke-opacity: 0.85; stroke-width: 0.6; stroke-linecap: square"/>
     </g>
     <g id="line2d_15">
      <g>
       <use xlink:href="#mdce021b49f" x="85.248" y="83.97173" style="fill: #56616e; stroke: #56616e; stroke-width: 0.8"/>
      </g>
     </g>
     <g id="text_11">
      <text style="font-size: 10px; font-family: 'DejaVu Sans'; text-anchor: end; fill: #56616e" x="78.248" y="87.770948" transform="rotate(-0 78.248 87.770948)">60</text>
     </g>
    </g>
    <g id="text_12">
     <text style="font-size: 10px; font-family: 'DejaVu Sans'; text-anchor: middle; fill: #273444" x="59.443313" y="204.624" transform="rotate(-90 59.443313 204.624)">Relative energy (mHa)</text>
    </g>
   </g>
   <g id="patch_3">
    <path d="M 132.45075 346.608 
L 469.61325 346.608 
L 469.61325 62.64 
L 132.45075 62.64 
z
" clip-path="url(#p892a20e251)" style="fill: #268567; opacity: 0.12; stroke: #268567; stroke-linejoin: miter"/>
   </g>
   <g id="line2d_16">
    <path d="M 85.248 125.511144 
L 93.016224 140.328615 
L 99.921312 153.043675 
L 106.8264 165.329535 
L 113.731488 177.186195 
L 120.636576 188.613654 
L 127.541664 199.611912 
L 134.446752 210.180971 
L 141.35184 220.320829 
L 148.256928 230.031487 
L 155.162016 239.312944 
L 161.203968 247.082141 
L 167.24592 254.522731 
L 173.287872 261.634715 
L 179.329824 268.418092 
L 185.371776 274.872863 
L 191.413728 280.999027 
L 197.45568 286.796585 
L 203.497632 292.265536 
L 209.539584 297.405881 
L 215.581536 302.217619 
L 220.760352 306.080422 
L 225.939168 309.7018 
L 231.117984 313.081753 
L 236.2968 316.22028 
L 241.475616 319.117383 
L 246.654432 321.77306 
L 251.833248 324.187312 
L 257.012064 326.360139 
L 262.19088 328.29154 
L 267.369696 329.981516 
L 272.548512 331.430068 
L 277.727328 332.637194 
L 282.906144 333.602894 
L 288.08496 334.32717 
L 293.263776 334.81002 
L 298.442592 335.051445 
L 303.621408 335.051445 
L 308.800224 334.81002 
L 313.97904 334.32717 
L 319.157856 333.602894 
L 324.336672 332.637194 
L 329.515488 331.430068 
L 334.694304 329.981516 
L 339.87312 328.29154 
L 345.051936 326.360139 
L 350.230752 324.187312 
L 355.409568 321.77306 
L 360.588384 319.117383 
L 365.7672 316.22028 
L 370.946016 313.081753 
L 376.124832 309.7018 
L 381.303648 306.080422 
L 386.482464 302.217619 
L 391.66128 298.113391 
L 397.703232 293.01999 
L 403.745184 287.597983 
L 409.787136 281.847369 
L 415.829088 275.768148 
L 421.87104 269.360321 
L 427.912992 262.623888 
L 433.954944 255.558848 
L 439.996896 248.165201 
L 446.038848 240.442948 
L 452.0808 232.392089 
L 458.985888 222.788731 
L 465.890976 212.756173 
L 472.796064 202.294415 
L 479.701152 191.403456 
L 486.60624 180.083297 
L 493.511328 168.333937 
L 500.416416 156.155378 
L 507.321504 143.547618 
L 514.226592 130.510657 
L 516.816 125.511144 
L 516.816 125.511144 
" clip-path="url(#p892a20e251)" style="fill: none; stroke-dasharray: 6.29,2.72; stroke-dashoffset: 0; stroke: #255d9b; stroke-width: 1.7"/>
   </g>
   <g id="LineCollection_1">
    <path d="M 203.70157 292.4444 
L 398.36243 292.4444 
" clip-path="url(#p892a20e251)" style="fill: none; stroke: #7952a1; stroke-width: 1.8"/>
   </g>
   <g id="LineCollection_2">
    <path d="M 132.45075 207.169954 
L 469.61325 207.169954 
" clip-path="url(#p892a20e251)" style="fill: none; stroke: #268567; stroke-width: 1.8"/>
   </g>
   <g id="line2d_17">
    <path d="M 301.032 346.608 
L 301.032 62.64 
" clip-path="url(#p892a20e251)" style="fill: none; stroke-dasharray: 0.8,1.32; stroke-dashoffset: 0; stroke: #56616e; stroke-width: 0.8"/>
   </g>
   <g id="line2d_18">
    <path d="M 85.248 334.931092 
L 516.816 334.931092 
" clip-path="url(#p892a20e251)" style="fill: none; stroke: #56616e; stroke-width: 0.8; stroke-linecap: square"/>
   </g>
   <g id="patch_4">
    <path d="M 85.248 346.608 
L 85.248 62.64 
" style="fill: none; stroke: #cad1d8; stroke-width: 0.8; stroke-linejoin: miter; stroke-linecap: square"/>
   </g>
   <g id="patch_5">
    <path d="M 85.248 346.608 
L 516.816 346.608 
" style="fill: none; stroke: #cad1d8; stroke-width: 0.8; stroke-linejoin: miter; stroke-linecap: square"/>
   </g>
   <g id="text_13">
    <text style="font-size: 9px; font-family: 'DejaVu Sans'; text-anchor: middle; fill: #7952a1" x="301.032" y="288.4444" transform="rotate(-0 301.032 288.4444)">n=0</text>
   </g>
   <g id="text_14">
    <text style="font-size: 9px; font-family: 'DejaVu Sans'; text-anchor: middle; fill: #268567" x="301.032" y="203.169954" transform="rotate(-0 301.032 203.169954)">n=1</text>
   </g>
   <g id="text_15">
    <text style="font-size: 9px; font-family: 'DejaVu Sans'; text-anchor: end; fill: #268567" x="508.18464" y="78.828728" transform="rotate(-0 508.18464 78.828728)">[0.801791, 1.109134] Å</text>
   </g>
   <g id="text_16">
    <text style="font-weight: 600; font-size: 12px; font-family: 'DejaVu Sans'; text-anchor: start; fill: #273444" x="85.248" y="56.64" transform="rotate(-0 85.248 56.64)">HF</text>
   </g>
   <g id="line2d_19">
    <path d="M 132.45075 159.094714 
L 144.077043 186.075815 
L 155.703336 210.267043 
L 167.329629 231.838105 
L 178.955922 250.947171 
L 190.582216 267.74188 
L 202.208509 282.360255 
L 213.834802 294.931518 
L 225.461095 305.576839 
L 237.087388 314.409991 
L 248.713681 321.537953 
L 260.339974 327.061442 
L 271.966267 331.075387 
L 283.59256 333.669358 
L 295.218853 334.927943 
L 301.032 335.081624 
L 306.845147 334.931092 
L 318.47144 333.754414 
L 330.097733 331.469449 
L 341.724026 328.143912 
L 353.350319 323.841912 
L 364.976612 318.624144 
L 376.602905 312.548072 
L 388.229198 305.668088 
L 399.855491 298.035665 
L 411.481784 289.699492 
L 423.108078 280.705604 
L 434.734371 271.097503 
L 446.360664 260.916271 
L 457.986957 250.20068 
L 469.61325 238.987298 
" clip-path="url(#p892a20e251)" style="fill: none; stroke: #c56517; stroke-width: 1.05; stroke-linecap: square"/>
    <defs>
     <path id="m8e3e50a1ef" d="M 0 1.75 
C 0.464105 1.75 0.909265 1.565609 1.237437 1.237437 
C 1.565609 0.909265 1.75 0.464105 1.75 0 
C 1.75 -0.464105 1.565609 -0.909265 1.237437 -1.237437 
C 0.909265 -1.565609 0.464105 -1.75 0 -1.75 
C -0.464105 -1.75 -0.909265 -1.565609 -1.237437 -1.237437 
C -1.565609 -0.909265 -1.75 -0.464105 -1.75 0 
C -1.75 0.464105 -1.565609 0.909265 -1.237437 1.237437 
C -0.909265 1.565609 -0.464105 1.75 0 1.75 
z
" style="stroke: #ffffff; stroke-width: 0.35"/>
    </defs>
    <g clip-path="url(#p892a20e251)">
     <use xlink:href="#m8e3e50a1ef" x="132.45075" y="159.094714" style="fill: #c56517; stroke: #ffffff; stroke-width: 0.35"/>
     <use xlink:href="#m8e3e50a1ef" x="144.077043" y="186.075815" style="fill: #c56517; stroke: #ffffff; stroke-width: 0.35"/>
     <use xlink:href="#m8e3e50a1ef" x="155.703336" y="210.267043" style="fill: #c56517; stroke: #ffffff; stroke-width: 0.35"/>
     <use xlink:href="#m8e3e50a1ef" x="167.329629" y="231.838105" style="fill: #c56517; stroke: #ffffff; stroke-width: 0.35"/>
     <use xlink:href="#m8e3e50a1ef" x="178.955922" y="250.947171" style="fill: #c56517; stroke: #ffffff; stroke-width: 0.35"/>
     <use xlink:href="#m8e3e50a1ef" x="190.582216" y="267.74188" style="fill: #c56517; stroke: #ffffff; stroke-width: 0.35"/>
     <use xlink:href="#m8e3e50a1ef" x="202.208509" y="282.360255" style="fill: #c56517; stroke: #ffffff; stroke-width: 0.35"/>
     <use xlink:href="#m8e3e50a1ef" x="213.834802" y="294.931518" style="fill: #c56517; stroke: #ffffff; stroke-width: 0.35"/>
     <use xlink:href="#m8e3e50a1ef" x="225.461095" y="305.576839" style="fill: #c56517; stroke: #ffffff; stroke-width: 0.35"/>
     <use xlink:href="#m8e3e50a1ef" x="237.087388" y="314.409991" style="fill: #c56517; stroke: #ffffff; stroke-width: 0.35"/>
     <use xlink:href="#m8e3e50a1ef" x="248.713681" y="321.537953" style="fill: #c56517; stroke: #ffffff; stroke-width: 0.35"/>
     <use xlink:href="#m8e3e50a1ef" x="260.339974" y="327.061442" style="fill: #c56517; stroke: #ffffff; stroke-width: 0.35"/>
     <use xlink:href="#m8e3e50a1ef" x="271.966267" y="331.075387" style="fill: #c56517; stroke: #ffffff; stroke-width: 0.35"/>
     <use xlink:href="#m8e3e50a1ef" x="283.59256" y="333.669358" style="fill: #c56517; stroke: #ffffff; stroke-width: 0.35"/>
     <use xlink:href="#m8e3e50a1ef" x="295.218853" y="334.927943" style="fill: #c56517; stroke: #ffffff; stroke-width: 0.35"/>
     <use xlink:href="#m8e3e50a1ef" x="301.032" y="335.081624" style="fill: #c56517; stroke: #ffffff; stroke-width: 0.35"/>
     <use xlink:href="#m8e3e50a1ef" x="306.845147" y="334.931092" style="fill: #c56517; stroke: #ffffff; stroke-width: 0.35"/>
     <use xlink:href="#m8e3e50a1ef" x="318.47144" y="333.754414" style="fill: #c56517; stroke: #ffffff; stroke-width: 0.35"/>
     <use xlink:href="#m8e3e50a1ef" x="330.097733" y="331.469449" style="fill: #c56517; stroke: #ffffff; stroke-width: 0.35"/>
     <use xlink:href="#m8e3e50a1ef" x="341.724026" y="328.143912" style="fill: #c56517; stroke: #ffffff; stroke-width: 0.35"/>
     <use xlink:href="#m8e3e50a1ef" x="353.350319" y="323.841912" style="fill: #c56517; stroke: #ffffff; stroke-width: 0.35"/>
     <use xlink:href="#m8e3e50a1ef" x="364.976612" y="318.624144" style="fill: #c56517; stroke: #ffffff; stroke-width: 0.35"/>
     <use xlink:href="#m8e3e50a1ef" x="376.602905" y="312.548072" style="fill: #c56517; stroke: #ffffff; stroke-width: 0.35"/>
     <use xlink:href="#m8e3e50a1ef" x="388.229198" y="305.668088" style="fill: #c56517; stroke: #ffffff; stroke-width: 0.35"/>
     <use xlink:href="#m8e3e50a1ef" x="399.855491" y="298.035665" style="fill: #c56517; stroke: #ffffff; stroke-width: 0.35"/>
     <use xlink:href="#m8e3e50a1ef" x="411.481784" y="289.699492" style="fill: #c56517; stroke: #ffffff; stroke-width: 0.35"/>
     <use xlink:href="#m8e3e50a1ef" x="423.108078" y="280.705604" style="fill: #c56517; stroke: #ffffff; stroke-width: 0.35"/>
     <use xlink:href="#m8e3e50a1ef" x="434.734371" y="271.097503" style="fill: #c56517; stroke: #ffffff; stroke-width: 0.35"/>
     <use xlink:href="#m8e3e50a1ef" x="446.360664" y="260.916271" style="fill: #c56517; stroke: #ffffff; stroke-width: 0.35"/>
     <use xlink:href="#m8e3e50a1ef" x="457.986957" y="250.20068" style="fill: #c56517; stroke: #ffffff; stroke-width: 0.35"/>
     <use xlink:href="#m8e3e50a1ef" x="469.61325" y="238.987298" style="fill: #c56517; stroke: #ffffff; stroke-width: 0.35"/>
    </g>
   </g>
   <g id="PathCollection_1">
    <defs>
     <path id="ma6da8f83bc" d="M 0 2 
C 0.530406 2 1.03916 1.789267 1.414214 1.414214 
C 1.789267 1.03916 2 0.530406 2 0 
C 2 -0.530406 1.789267 -1.03916 1.414214 -1.414214 
C 1.03916 -1.789267 0.530406 -2 0 -2 
C -0.530406 -2 -1.03916 -1.789267 -1.414214 -1.414214 
C -1.789267 -1.03916 -2 -0.530406 -2 0 
C -2 0.530406 -1.789267 1.03916 -1.414214 1.414214 
C -1.03916 1.789267 -0.530406 2 0 2 
z
" style="stroke: #7952a1"/>
    </defs>
    <g clip-path="url(#p892a20e251)">
     <use xlink:href="#ma6da8f83bc" x="203.70157" y="292.4444" style="fill: #7952a1; stroke: #7952a1"/>
     <use xlink:href="#ma6da8f83bc" x="398.36243" y="292.4444" style="fill: #7952a1; stroke: #7952a1"/>
    </g>
   </g>
   <g id="PathCollection_2">
    <defs>
     <path id="m525f4d4f52" d="M 0 2 
C 0.530406 2 1.03916 1.789267 1.414214 1.414214 
C 1.789267 1.03916 2 0.530406 2 0 
C 2 -0.530406 1.789267 -1.03916 1.414214 -1.414214 
C 1.03916 -1.789267 0.530406 -2 0 -2 
C -0.530406 -2 -1.03916 -1.789267 -1.414214 -1.414214 
C -1.789267 -1.03916 -2 -0.530406 -2 0 
C -2 0.530406 -1.789267 1.03916 -1.414214 1.414214 
C -1.03916 1.789267 -0.530406 2 0 2 
z
" style="stroke: #268567"/>
    </defs>
    <g clip-path="url(#p892a20e251)">
     <use xlink:href="#m525f4d4f52" x="132.45075" y="207.169954" style="fill: #268567; stroke: #268567"/>
     <use xlink:href="#m525f4d4f52" x="469.61325" y="207.169954" style="fill: #268567; stroke: #268567"/>
    </g>
   </g>
  </g>
  <g id="legend_1">
   <g id="patch_6">
    <path d="M 160.223203 19.114594 
L 178.223203 19.114594 
L 178.223203 12.814594 
L 160.223203 12.814594 
z
" style="fill: #268567; opacity: 0.12; stroke: #268567; stroke-linejoin: miter"/>
   </g>
   <g id="text_17">
    <text style="font-size: 9px; font-family: 'DejaVu Sans'; text-anchor: start; fill: #273444" x="185.423203" y="19.114594" transform="rotate(-0 185.423203 19.114594)">Selected bond range</text>
   </g>
   <g id="line2d_20">
    <path d="M 160.223203 29.174906 
L 169.223203 29.174906 
L 178.223203 29.174906 
" style="fill: none; stroke-dasharray: 6.29,2.72; stroke-dashoffset: 0; stroke: #255d9b; stroke-width: 1.7"/>
   </g>
   <g id="text_18">
    <text style="font-size: 9px; font-family: 'DejaVu Sans'; text-anchor: start; fill: #273444" x="185.423203" y="32.324906" transform="rotate(-0 185.423203 32.324906)">Local harmonic model</text>
   </g>
   <g id="line2d_21">
    <path d="M 302.684766 15.964594 
L 311.684766 15.964594 
L 320.684766 15.964594 
" style="fill: none; stroke: #c56517; stroke-width: 1.05; stroke-linecap: square"/>
    <g>
     <use xlink:href="#m8e3e50a1ef" x="311.684766" y="15.964594" style="fill: #c56517; stroke: #ffffff; stroke-width: 0.35"/>
    </g>
   </g>
   <g id="text_19">
    <text style="font-size: 9px; font-family: 'DejaVu Sans'; text-anchor: start; fill: #273444" x="327.884766" y="19.114594" transform="rotate(-0 327.884766 19.114594)">RHF calculated points</text>
   </g>
  </g>
 </g>
 <defs>
  <clipPath id="p892a20e251">
   <rect x="85.248" y="62.64" width="431.568" height="283.968"/>
  </clipPath>
 </defs>
</svg>
