<?xml version="1.0" encoding="utf-8" standalone="no"?>
<!DOCTYPE svg PUBLIC "-//W3C//DTD SVG 1.1//EN"
  "http://www.w3.org/Graphics/SVG/1.1/DTD/svg11.dtd">
<svg xmlns:xlink="http://www.w3.org/1999/xlink" width="432pt" height="316.8pt" viewBox="0 0 432 316.8" xmlns="http://www.w3.org/2000/svg" version="1.1">
 <metadata>
  <rdf:RDF xmlns:dc="http://purl.org/dc/elements/1.1/" xmlns:cc="http://creativecommons.org/ns#" xmlns:rdf="http://www.w3.org/1999/02/22-rdf-syntax-ns#">
   <cc:Work>
    <dc:type rdf:resource="http://purl.org/dc/dcmitype/StillImage"/>
    <dc:date>2026-09-23T14:40:38.273544</dc:date>
    <dc:format>image/svg+xml</dc:format>
    <dc:creator>
     <cc:Agent>
      <dc:title>Matplotlib v3.10.0, https://matplotlib.org/</dc:title>
     </cc:Agent>
    </dc:creator>
   </cc:Work>
  </rdf:RDF>
 </metadata>
 <defs>
  <style type="text/css">*{stroke-linejoin: round; stroke-linecap: butt}</style>
 </defs>
 <g id="figure_1">
  <g id="patch_1">
   <path d="M 0 316.8 
L 432 316.8 
L 432 0 
L 0 0 
z
" style="fill: #ffffff"/>
  </g>
  <g id="axes_1">
   <g id="patch_2">
    <path d="M 69.12 272.448 
L 423.36 272.448 
L 423.36 6.336 
L 69.12 6.336 
z
" style="fill: #ffffff"/>
   </g>
   <g id="matplotlib.axis_1">
    <g id="xtick_1">
     <g id="line2d_1">
      <defs>
       <path id="m1a9d70f54f" d="M 0 0 
L 0 3.5 
" style="stroke: #56616e; stroke-width: 0.8"/>
      </defs>
      <g>
       <use xlink:href="#m1a9d70f54f" x="79.974204" y="272.448" style="fill: #56616e; stroke: #56616e; stroke-width: 0.8"/>
      </g>
     </g>
     <g id="text_1">
      <text style="font-size: 10px; font-family: 'DejaVu Sans'; text-anchor: middle; fill: #56616e" x="79.974204" y="287.046438" transform="rotate(-0 79.974204 287.046438)">1.12</text>
     </g>
    </g>
    <g id="xtick_2">
     <g id="line2d_2">
      <g>
       <use xlink:href="#m1a9d70f54f" x="157.969905" y="272.448" style="fill: #56616e; stroke: #56616e; stroke-width: 0.8"/>
      </g>
     </g>
     <g id="text_2">
      <text style="font-size: 10px; font-family: 'DejaVu Sans'; text-anchor: middle; fill: #56616e" x="157.969905" y="287.046438" transform="rotate(-0 157.969905 287.046438)">1.20</text>
     </g>
    </g>
    <g id="xtick_3">
     <g id="line2d_3">
      <g>
       <use xlink:href="#m1a9d70f54f" x="235.965606" y="272.448" style="fill: #56616e; stroke: #56616e; stroke-width: 0.8"/>
      </g>
     </g>
     <g id="text_3">
      <text style="font-size: 10px; font-family: 'DejaVu Sans'; text-anchor: middle; fill: #56616e" x="235.965606" y="287.046438" transform="rotate(-0 235.965606 287.046438)">1.28</text>
     </g>
    </g>
    <g id="xtick_4">
     <g id="line2d_4">
      <g>
       <use xlink:href="#m1a9d70f54f" x="313.961307" y="272.448" style="fill: #56616e; stroke: #56616e; stroke-width: 0.8"/>
      </g>
     </g>
     <g id="text_4">
      <text style="font-size: 10px; font-family: 'DejaVu Sans'; text-anchor: middle; fill: #56616e" x="313.961307" y="287.046438" transform="rotate(-0 313.961307 287.046438)">1.36</text>
     </g>
    </g>
    <g id="xtick_5">
     <g id="line2d_5">
      <g>
       <use xlink:href="#m1a9d70f54f" x="391.957007" y="272.448" style="fill: #56616e; stroke: #56616e; stroke-width: 0.8"/>
      </g>
     </g>
     <g id="text_5">
      <text style="font-size: 10px; font-family: 'DejaVu Sans'; text-anchor: middle; fill: #56616e" x="391.957007" y="287.046438" transform="rotate(-0 391.957007 287.046438)">1.44</text>
     </g>
    </g>
    <g id="text_6">
     <text style="font-size: 10px; font-family: 'DejaVu Sans'; text-anchor: middle; fill: #273444" x="246.24" y="302.408938" transform="rotate(-0 246.24 302.408938)">Be-H length (Å)</text>
    </g>
   </g>
   <g id="matplotlib.axis_2">
    <g id="ytick_1">
     <g id="line2d_6">
      <path d="M 69.12 260.401778 
L 423.36 260.401778 
" clip-path="url(#pe17adec32c)" style="fill: none; stroke: #e3e8ec; stroke-opacity: 0.85; stroke-width: 0.6; stroke-linecap: square"/>
     </g>
     <g id="line2d_7">
      <defs>
       <path id="m36abbec988" d="M 0 0 
L -3.5 0 
" style="stroke: #56616e; stroke-width: 0.8"/>
      </defs>
      <g>
       <use xlink:href="#m36abbec988" x="69.12" y="260.401778" style="fill: #56616e; stroke: #56616e; stroke-width: 0.8"/>
      </g>
     </g>
     <g id="text_7">
      <text style="font-size: 10px; font-family: 'DejaVu Sans'; text-anchor: end; fill: #56616e" x="62.12" y="264.200997" transform="rotate(-0 62.12 264.200997)">0</text>
     </g>
    </g>
    <g id="ytick_2">
     <g id="line2d_8">
      <path d="M 69.12 197.574536 
L 423.36 197.574536 
" clip-path="url(#pe17adec32c)" style="fill: none; stroke: #e3e8ec; stroke-opacity: 0.85; stroke-width: 0.6; stroke-linecap: square"/>
     </g>
     <g id="line2d_9">
      <g>
       <use xlink:href="#m36abbec988" x="69.12" y="197.574536" style="fill: #56616e; stroke: #56616e; stroke-width: 0.8"/>
      </g>
     </g>
     <g id="text_8">
      <text style="font-size: 10px; font-family: 'DejaVu Sans'; text-anchor: end; fill: #56616e" x="62.12" y="201.373755" transform="rotate(-0 62.12 201.373755)">8</text>
     </g>
    </g>
    <g id="ytick_3">
     <g id="line2d_10">
      <path d="M 69.12 134.747295 
L 423.36 134.747295 
" clip-path="url(#pe17adec32c)" style="fill: none; stroke: #e3e8ec; stroke-opacity: 0.85; stroke-width: 0.6; stroke-linecap: square"/>
     </g>
     <g id="line2d_11">
      <g>
       <use xlink:href="#m36abbec988" x="69.12" y="134.747295" style="fill: #56616e; stroke: #56616e; stroke-width: 0.8"/>
      </g>
     </g>
     <g id="text_9">
      <text style="font-size: 10px; font-family: 'DejaVu Sans'; text-anchor: end; fill: #56616e" x="62.12" y="138.546514" transform="rotate(-0 62.12 138.546514)">16</text>
     </g>
    </g>
    <g id="ytick_4">
     <g id="line2d_12">
      <path d="M 69.12 71.920053 
L 423.36 71.920053 
" clip-path="url(#pe17adec32c)" style="fill: none; stroke: #e3e8ec; stroke-opacity: 0.85; stroke-width: 0.6; stroke-linecap: square"/>
     </g>
     <g id="line2d_13">
      <g>
       <use xlink:href="#m36abbec988" x="69.12" y="71.920053" style="fill: #56616e; stroke: #56616e; stroke-width: 0.8"/>
      </g>
     </g>
     <g id="text_10">
      <text style="font-size: 10px; font-family: 'DejaVu Sans'; text-anchor: end; fill: #56616e" x="62.12" y="75.719272" transform="rotate(-0 62.12 75.719272)">24</text>
     </g>
    </g>
    <g id="ytick_5">
     <g id="line2d_14">
      <path d="M 69.12 9.092812 
L 423.36 9.092812 
" clip-path="url(#pe17adec32c)" style="fill: none; stroke: #e3e8ec; stroke-opacity: 0.85; stroke-width: 0.6; stroke-linecap: square"/>
     </g>
     <g id="line2d_15">
      <g>
       <use xlink:href="#m36abbec988" x="69.12" y="9.092812" style="fill: #56616e; stroke: #56616e; stroke-width: 0.8"/>
      </g>
     </g>
     <g id="text_11">
      <text style="font-size: 10px; font-family: 'DejaVu Sans'; text-anchor: end; fill: #56616e" x="62.12" y="12.892031" transform="rotate(-0 62.12 12.892031)">32</text>
     </g>
    </g>
    <g id="text_12">
     <!-- Energy relative to $E_{RHF}(R_e)$ (mHa) -->
     <g style="fill: #273444" transform="translate(43.295 222.992) rotate(-90)">
      <text>
       <tspan x="0" y="-0.40625" style="font-size: 10px; font-family: 'DejaVu Sans'; fill: #273444">E</tspan>
       <tspan x="6.318359" y="-0.40625" style="font-size: 10px; font-family: 'DejaVu Sans'; fill: #273444">n</tspan>
       <tspan x="12.65625" y="-0.40625" style="font-size: 10px; font-family: 'DejaVu Sans'; fill: #273444">e</tspan>
       <tspan x="18.808594" y="-0.40625" style="font-size: 10px; font-family: 'DejaVu Sans'; fill: #273444">r</tspan>
       <tspan x="22.919922" y="-0.40625" style="font-size: 10px; font-family: 'DejaVu Sans'; fill: #273444">g</tspan>
       <tspan x="29.267578" y="-0.40625" style="font-size: 10px; font-family: 'DejaVu Sans'; fill: #273444">y</tspan>
       <tspan x="35.185547" y="-0.40625" style="font-size: 10px; font-family: 'DejaVu Sans'; fill: #273444"> </tspan>
       <tspan x="38.364258" y="-0.40625" style="font-size: 10px; font-family: 'DejaVu Sans'; fill: #273444">r</tspan>
       <tspan x="42.475586" y="-0.40625" style="font-size: 10px; font-family: 'DejaVu Sans'; fill: #273444">e</tspan>
       <tspan x="48.62793" y="-0.40625" style="font-size: 10px; font-family: 'DejaVu Sans'; fill: #273444">l</tspan>
       <tspan x="51.40625" y="-0.40625" style="font-size: 10px; font-family: 'DejaVu Sans'; fill: #273444">a</tspan>
       <tspan x="57.53418" y="-0.40625" style="font-size: 10px; font-family: 'DejaVu Sans'; fill: #273444">t</tspan>
       <tspan x="61.455078" y="-0.40625" style="font-size: 10px; font-family: 'DejaVu Sans'; fill: #273444">i</tspan>
       <tspan x="64.233398" y="-0.40625" style="font-size: 10px; font-family: 'DejaVu Sans'; fill: #273444">v</tspan>
       <tspan x="70.151367" y="-0.40625" style="font-size: 10px; font-family: 'DejaVu Sans'; fill: #273444">e</tspan>
       <tspan x="76.303711" y="-0.40625" style="font-size: 10px; font-family: 'DejaVu Sans'; fill: #273444"> </tspan>
       <tspan x="79.482422" y="-0.40625" style="font-size: 10px; font-family: 'DejaVu Sans'; fill: #273444">t</tspan>
       <tspan x="83.40332" y="-0.40625" style="font-size: 10px; font-family: 'DejaVu Sans'; fill: #273444">o</tspan>
       <tspan x="89.521484" y="-0.40625" style="font-size: 10px; font-family: 'DejaVu Sans'; fill: #273444"> </tspan>
       <tspan x="113.445801" y="-0.40625" style="font-size: 10px; font-family: 'DejaVu Sans'; fill: #273444">(</tspan>
       <tspan x="128.875488" y="-0.40625" style="font-size: 10px; font-family: 'DejaVu Sans'; fill: #273444">)</tspan>
       <tspan x="132.776855" y="-0.40625" style="font-size: 10px; font-family: 'DejaVu Sans'; fill: #273444"> </tspan>
       <tspan x="135.955566" y="-0.40625" style="font-size: 10px; font-family: 'DejaVu Sans'; fill: #273444">(</tspan>
       <tspan x="139.856934" y="-0.40625" style="font-size: 10px; font-family: 'DejaVu Sans'; fill: #273444">m</tspan>
       <tspan x="149.598145" y="-0.40625" style="font-size: 10px; font-family: 'DejaVu Sans'; fill: #273444">H</tspan>
       <tspan x="157.117676" y="-0.40625" style="font-size: 10px; font-family: 'DejaVu Sans'; fill: #273444">a</tspan>
       <tspan x="163.245605" y="-0.40625" style="font-size: 10px; font-family: 'DejaVu Sans'; fill: #273444">)</tspan>
       <tspan x="92.700195" y="-0.40625" style="font-style: oblique; font-size: 10px; font-family: 'DejaVu Sans'; fill: #273444">E</tspan>
       <tspan x="117.347168" y="-0.40625" style="font-style: oblique; font-size: 10px; font-family: 'DejaVu Sans'; fill: #273444">R</tspan>
       <tspan x="99.018555" y="1.234375" style="font-style: oblique; font-size: 7px; font-family: 'DejaVu Sans'; fill: #273444">R</tspan>
       <tspan x="103.882324" y="1.234375" style="font-style: oblique; font-size: 7px; font-family: 'DejaVu Sans'; fill: #273444">H</tspan>
       <tspan x="109.145996" y="1.234375" style="font-style: oblique; font-size: 7px; font-family: 'DejaVu Sans'; fill: #273444">F</tspan>
       <tspan x="124.29541" y="1.234375" style="font-style: oblique; font-size: 7px; font-family: 'DejaVu Sans'; fill: #273444">e</tspan>
      </text>
     </g>
    </g>
   </g>
   <g id="patch_3">
    <path d="M 107.865 272.448 
L 384.615 272.448 
L 384.615 6.336 
L 107.865 6.336 
z
" clip-path="url(#pe17adec32c)" style="fill: #268567; opacity: 0.12; stroke: #268567; stroke-linejoin: miter"/>
   </g>
   <g id="line2d_16">
    <path d="M 69.12 41.379556 
L 75.49632 56.865303 
L 81.87264 71.783344 
L 88.24896 86.13368 
L 94.62528 99.916311 
L 101.0016 113.131236 
L 106.66944 124.401243 
L 112.33728 135.222693 
L 118.00512 145.595585 
L 123.67296 155.51992 
L 129.3408 164.995698 
L 135.00864 174.022918 
L 140.67648 182.60158 
L 146.34432 190.731685 
L 151.30368 197.477569 
L 156.26304 203.880027 
L 161.2224 209.939058 
L 166.18176 215.654662 
L 171.14112 221.026839 
L 176.10048 226.055589 
L 181.05984 230.740912 
L 186.0192 235.082809 
L 190.27008 238.531095 
L 194.52096 241.727067 
L 198.77184 244.670726 
L 203.02272 247.362071 
L 207.2736 249.801102 
L 211.52448 251.98782 
L 215.77536 253.922224 
L 220.02624 255.604315 
L 224.27712 257.034092 
L 228.528 258.211556 
L 232.77888 259.136705 
L 237.02976 259.809542 
L 241.28064 260.230064 
L 245.53152 260.398273 
L 249.7824 260.314169 
L 254.03328 259.977751 
L 258.28416 259.389019 
L 262.53504 258.547974 
L 266.78592 257.454615 
L 271.0368 256.108942 
L 275.28768 254.510956 
L 279.53856 252.660656 
L 283.78944 250.558043 
L 288.04032 248.203116 
L 292.2912 245.595876 
L 296.54208 242.736321 
L 300.79296 239.624454 
L 305.04384 236.260272 
L 309.29472 232.643777 
L 314.25408 228.105637 
L 319.21344 223.22407 
L 324.1728 217.999076 
L 329.13216 212.430655 
L 334.09152 206.518807 
L 339.05088 200.263532 
L 344.01024 193.664831 
L 348.9696 186.722702 
L 353.92896 179.437147 
L 359.5968 170.690276 
L 365.26464 161.494847 
L 370.93248 151.85086 
L 376.60032 141.758316 
L 382.26816 131.217215 
L 387.936 120.227556 
L 393.60384 108.789339 
L 399.98016 95.385179 
L 406.35648 81.413313 
L 412.7328 66.873742 
L 419.10912 51.766465 
L 423.36 41.379556 
L 423.36 41.379556 
" clip-path="url(#pe17adec32c)" style="fill: none; stroke-dasharray: 6.29,2.72; stroke-dashoffset: 0; stroke: #255d9b; stroke-width: 1.7"/>
   </g>
   <g id="LineCollection_1">
    <path d="M 166.349157 215.841593 
L 326.130843 215.841593 
" clip-path="url(#pe17adec32c)" style="fill: none; stroke: #7952a1; stroke-width: 1.8"/>
   </g>
   <g id="LineCollection_2">
    <path d="M 107.865 126.721222 
L 384.615 126.721222 
" clip-path="url(#pe17adec32c)" style="fill: none; stroke: #268567; stroke-width: 1.8"/>
   </g>
   <g id="line2d_17">
    <path d="M 246.24 272.448 
L 246.24 6.336 
" clip-path="url(#pe17adec32c)" style="fill: none; stroke-dasharray: 0.8,1.32; stroke-dashoffset: 0; stroke: #56616e; stroke-width: 0.8"/>
   </g>
   <g id="line2d_18">
    <path d="M 69.12 260.401778 
L 423.36 260.401778 
" clip-path="url(#pe17adec32c)" style="fill: none; stroke: #56616e; stroke-width: 0.8; stroke-linecap: square"/>
   </g>
   <g id="patch_4">
    <path d="M 69.12 272.448 
L 69.12 6.336 
" style="fill: none; stroke: #cad1d8; stroke-width: 0.8; stroke-linejoin: miter; stroke-linecap: square"/>
   </g>
   <g id="patch_5">
    <path d="M 69.12 272.448 
L 423.36 272.448 
" style="fill: none; stroke: #cad1d8; stroke-width: 0.8; stroke-linejoin: miter; stroke-linecap: square"/>
   </g>
   <g id="text_13">
    <text style="font-size: 9px; font-family: 'DejaVu Sans'; text-anchor: middle; fill: #7952a1" x="246.24" y="211.841593" transform="rotate(-0 246.24 211.841593)">n=0</text>
   </g>
   <g id="text_14">
    <text style="font-size: 9px; font-family: 'DejaVu Sans'; text-anchor: middle; fill: #268567" x="246.24" y="122.721222" transform="rotate(-0 246.24 122.721222)">n=1</text>
   </g>
   <g id="text_15">
    <!-- BeH$_2$ -->
    <g style="fill: #273444" transform="translate(379.6128 26.098605)">
     <text>
      <tspan x="0" y="-0.25" style="font-weight: 700; font-size: 12px; font-family: 'DejaVu Sans'; fill: #273444">B</tspan>
      <tspan x="9.146484" y="-0.25" style="font-weight: 700; font-size: 12px; font-family: 'DejaVu Sans'; fill: #273444">e</tspan>
      <tspan x="17.285156" y="-0.25" style="font-weight: 700; font-size: 12px; font-family: 'DejaVu Sans'; fill: #273444">H</tspan>
      <tspan x="27.442969" y="1.71875" style="font-size: 8.4px; font-family: 'DejaVu Sans'; fill: #273444">2</tspan>
     </text>
    </g>
   </g>
   <g id="line2d_19">
    <path d="M 107.865 99.958526 
L 117.408103 123.141592 
L 126.951207 144.249982 
L 136.49431 163.358071 
L 146.037414 180.537475 
L 155.580517 195.857161 
L 165.123621 209.38355 
L 174.666724 221.180619 
L 184.209828 231.309994 
L 193.752931 239.831042 
L 203.296034 246.80096 
L 212.839138 252.274857 
L 222.382241 256.305834 
L 231.925345 258.945064 
L 241.468448 260.241866 
L 246.24 260.401778 
L 251.011552 260.243773 
L 260.554655 258.996605 
L 270.097759 256.544534 
L 279.640862 252.930147 
L 289.183966 248.194508 
L 298.727069 242.377215 
L 308.270172 235.516461 
L 317.813276 227.649086 
L 327.356379 218.810629 
L 336.899483 209.035383 
L 346.442586 198.356438 
L 355.98569 186.805735 
L 365.528793 174.414104 
L 375.071897 161.211313 
L 384.615 147.22611 
" clip-path="url(#pe17adec32c)" style="fill: none; stroke: #c56517; stroke-width: 1.05; stroke-linecap: square"/>
    <defs>
     <path id="m924986952e" d="M 0 1.75 
C 0.464105 1.75 0.909265 1.565609 1.237437 1.237437 
C 1.565609 0.909265 1.75 0.464105 1.75 0 
C 1.75 -0.464105 1.565609 -0.909265 1.237437 -1.237437 
C 0.909265 -1.565609 0.464105 -1.75 0 -1.75 
C -0.464105 -1.75 -0.909265 -1.565609 -1.237437 -1.237437 
C -1.565609 -0.909265 -1.75 -0.464105 -1.75 0 
C -1.75 0.464105 -1.565609 0.909265 -1.237437 1.237437 
C -0.909265 1.565609 -0.464105 1.75 0 1.75 
z
" style="stroke: #ffffff; stroke-width: 0.35"/>
    </defs>
    <g clip-path="url(#pe17adec32c)">
     <use xlink:href="#m924986952e" x="107.865" y="99.958526" style="fill: #c56517; stroke: #ffffff; stroke-width: 0.35"/>
     <use xlink:href="#m924986952e" x="117.408103" y="123.141592" style="fill: #c56517; stroke: #ffffff; stroke-width: 0.35"/>
     <use xlink:href="#m924986952e" x="126.951207" y="144.249982" style="fill: #c56517; stroke: #ffffff; stroke-width: 0.35"/>
     <use xlink:href="#m924986952e" x="136.49431" y="163.358071" style="fill: #c56517; stroke: #ffffff; stroke-width: 0.35"/>
     <use xlink:href="#m924986952e" x="146.037414" y="180.537475" style="fill: #c56517; stroke: #ffffff; stroke-width: 0.35"/>
     <use xlink:href="#m924986952e" x="155.580517" y="195.857161" style="fill: #c56517; stroke: #ffffff; stroke-width: 0.35"/>
     <use xlink:href="#m924986952e" x="165.123621" y="209.38355" style="fill: #c56517; stroke: #ffffff; stroke-width: 0.35"/>
     <use xlink:href="#m924986952e" x="174.666724" y="221.180619" style="fill: #c56517; stroke: #ffffff; stroke-width: 0.35"/>
     <use xlink:href="#m924986952e" x="184.209828" y="231.309994" style="fill: #c56517; stroke: #ffffff; stroke-width: 0.35"/>
     <use xlink:href="#m924986952e" x="193.752931" y="239.831042" style="fill: #c56517; stroke: #ffffff; stroke-width: 0.35"/>
     <use xlink:href="#m924986952e" x="203.296034" y="246.80096" style="fill: #c56517; stroke: #ffffff; stroke-width: 0.35"/>
     <use xlink:href="#m924986952e" x="212.839138" y="252.274857" style="fill: #c56517; stroke: #ffffff; stroke-width: 0.35"/>
     <use xlink:href="#m924986952e" x="222.382241" y="256.305834" style="fill: #c56517; stroke: #ffffff; stroke-width: 0.35"/>
     <use xlink:href="#m924986952e" x="231.925345" y="258.945064" style="fill: #c56517; stroke: #ffffff; stroke-width: 0.35"/>
     <use xlink:href="#m924986952e" x="241.468448" y="260.241866" style="fill: #c56517; stroke: #ffffff; stroke-width: 0.35"/>
     <use xlink:href="#m924986952e" x="246.24" y="260.401778" style="fill: #c56517; stroke: #ffffff; stroke-width: 0.35"/>
     <use xlink:href="#m924986952e" x="251.011552" y="260.243773" style="fill: #c56517; stroke: #ffffff; stroke-width: 0.35"/>
     <use xlink:href="#m924986952e" x="260.554655" y="258.996605" style="fill: #c56517; stroke: #ffffff; stroke-width: 0.35"/>
     <use xlink:href="#m924986952e" x="270.097759" y="256.544534" style="fill: #c56517; stroke: #ffffff; stroke-width: 0.35"/>
     <use xlink:href="#m924986952e" x="279.640862" y="252.930147" style="fill: #c56517; stroke: #ffffff; stroke-width: 0.35"/>
     <use xlink:href="#m924986952e" x="289.183966" y="248.194508" style="fill: #c56517; stroke: #ffffff; stroke-width: 0.35"/>
     <use xlink:href="#m924986952e" x="298.727069" y="242.377215" style="fill: #c56517; stroke: #ffffff; stroke-width: 0.35"/>
     <use xlink:href="#m924986952e" x="308.270172" y="235.516461" style="fill: #c56517; stroke: #ffffff; stroke-width: 0.35"/>
     <use xlink:href="#m924986952e" x="317.813276" y="227.649086" style="fill: #c56517; stroke: #ffffff; stroke-width: 0.35"/>
     <use xlink:href="#m924986952e" x="327.356379" y="218.810629" style="fill: #c56517; stroke: #ffffff; stroke-width: 0.35"/>
     <use xlink:href="#m924986952e" x="336.899483" y="209.035383" style="fill: #c56517; stroke: #ffffff; stroke-width: 0.35"/>
     <use xlink:href="#m924986952e" x="346.442586" y="198.356438" style="fill: #c56517; stroke: #ffffff; stroke-width: 0.35"/>
     <use xlink:href="#m924986952e" x="355.98569" y="186.805735" style="fill: #c56517; stroke: #ffffff; stroke-width: 0.35"/>
     <use xlink:href="#m924986952e" x="365.528793" y="174.414104" style="fill: #c56517; stroke: #ffffff; stroke-width: 0.35"/>
     <use xlink:href="#m924986952e" x="375.071897" y="161.211313" style="fill: #c56517; stroke: #ffffff; stroke-width: 0.35"/>
     <use xlink:href="#m924986952e" x="384.615" y="147.22611" style="fill: #c56517; stroke: #ffffff; stroke-width: 0.35"/>
    </g>
   </g>
   <g id="PathCollection_1">
    <defs>
     <path id="m3bd9f0615b" d="M 0 2 
C 0.530406 2 1.03916 1.789267 1.414214 1.414214 
C 1.789267 1.03916 2 0.530406 2 0 
C 2 -0.530406 1.789267 -1.03916 1.414214 -1.414214 
C 1.03916 -1.789267 0.530406 -2 0 -2 
C -0.530406 -2 -1.03916 -1.789267 -1.414214 -1.414214 
C -1.789267 -1.03916 -2 -0.530406 -2 0 
C -2 0.530406 -1.789267 1.03916 -1.414214 1.414214 
C -1.03916 1.789267 -0.530406 2 0 2 
z
" style="stroke: #7952a1"/>
    </defs>
    <g clip-path="url(#pe17adec32c)">
     <use xlink:href="#m3bd9f0615b" x="166.349157" y="215.841593" style="fill: #7952a1; stroke: #7952a1"/>
     <use xlink:href="#m3bd9f0615b" x="326.130843" y="215.841593" style="fill: #7952a1; stroke: #7952a1"/>
    </g>
   </g>
   <g id="PathCollection_2">
    <defs>
     <path id="mb724636906" d="M 0 2 
C 0.530406 2 1.03916 1.789267 1.414214 1.414214 
C 1.789267 1.03916 2 0.530406 2 0 
C 2 -0.530406 1.789267 -1.03916 1.414214 -1.414214 
C 1.03916 -1.789267 0.530406 -2 0 -2 
C -0.530406 -2 -1.03916 -1.789267 -1.414214 -1.414214 
C -1.789267 -1.03916 -2 -0.530406 -2 0 
C -2 0.530406 -1.789267 1.03916 -1.414214 1.414214 
C -1.03916 1.789267 -0.530406 2 0 2 
z
" style="stroke: #268567"/>
    </defs>
    <g clip-path="url(#pe17adec32c)">
     <use xlink:href="#mb724636906" x="107.865" y="126.721222" style="fill: #268567; stroke: #268567"/>
     <use xlink:href="#mb724636906" x="384.615" y="126.721222" style="fill: #268567; stroke: #268567"/>
    </g>
   </g>
  </g>
 </g>
 <defs>
  <clipPath id="pe17adec32c">
   <rect x="69.12" y="6.336" width="354.24" height="266.112"/>
  </clipPath>
 </defs>
</svg>
